<svg width="175" height="73" viewBox="0 0 175 73" fill="none" xmlns="http://www.w3.org/2000/svg">
<path d="M52.3567 20.1715H46.7676L46.7373 17.8238H51.8114C52.6495 17.8238 53.3816 17.6825 54.0076 17.3997C54.6337 17.117 55.1184 16.7131 55.4617 16.188C55.8151 15.6529 55.9918 15.0167 55.9918 14.2796C55.9918 13.4718 55.8353 12.8154 55.5223 12.3105C55.2193 11.7956 54.7498 11.4219 54.1137 11.1897C53.4876 10.9474 52.6899 10.8262 51.7205 10.8262H47.4189V30.4863H44.4957V8.43305H51.7205C52.8514 8.43305 53.8612 8.54917 54.7498 8.78141C55.6384 9.00356 56.3907 9.35698 57.0066 9.84167C57.6327 10.3163 58.1073 10.9221 58.4304 11.6592C58.7535 12.3964 58.9151 13.2799 58.9151 14.3099C58.9151 15.2187 58.6828 16.0416 58.2183 16.7787C57.7538 17.5058 57.1076 18.1015 56.2796 18.566C55.4617 19.0305 54.5024 19.3284 53.4018 19.4597L52.3567 20.1715ZM52.2203 30.4863H45.6165L47.2675 28.1083H52.2203C53.1493 28.1083 53.9369 27.9467 54.5832 27.6236C55.2395 27.3005 55.7394 26.8461 56.0827 26.2604C56.426 25.6646 56.5977 24.9629 56.5977 24.1551C56.5977 23.3371 56.4513 22.6303 56.1584 22.0346C55.8656 21.4388 55.4061 20.9793 54.7801 20.6562C54.154 20.3331 53.3462 20.1715 52.3567 20.1715H48.1914L48.2217 17.8238H53.9167L54.5378 18.672C55.598 18.7629 56.4967 19.0658 57.2338 19.5808C57.9709 20.0857 58.5314 20.732 58.9151 21.5196C59.3089 22.3072 59.5058 23.1756 59.5058 24.1248C59.5058 25.498 59.2029 26.6593 58.597 27.6084C58.0012 28.5475 57.1581 29.2645 56.0675 29.7592C54.977 30.2439 53.6946 30.4863 52.2203 30.4863ZM62.6562 22.4738V22.1254C62.6562 20.944 62.8279 19.8484 63.1712 18.8387C63.5145 17.8188 64.0093 16.9352 64.6556 16.188C65.3018 15.4307 66.0844 14.845 67.0033 14.431C67.9222 14.0069 68.9521 13.7949 70.0931 13.7949C71.2443 13.7949 72.2793 14.0069 73.1982 14.431C74.1272 14.845 74.9148 15.4307 75.561 16.188C76.2174 16.9352 76.7172 17.8188 77.0605 18.8387C77.4038 19.8484 77.5755 20.944 77.5755 22.1254V22.4738C77.5755 23.6552 77.4038 24.7508 77.0605 25.7606C76.7172 26.7703 76.2174 27.6539 75.561 28.4112C74.9148 29.1584 74.1322 29.7441 73.2133 30.1682C72.3045 30.5822 71.2746 30.7892 70.1234 30.7892C68.9723 30.7892 67.9373 30.5822 67.0184 30.1682C66.0995 29.7441 65.3119 29.1584 64.6556 28.4112C64.0093 27.6539 63.5145 26.7703 63.1712 25.7606C62.8279 24.7508 62.6562 23.6552 62.6562 22.4738ZM65.4583 22.1254V22.4738C65.4583 23.2917 65.5543 24.0642 65.7461 24.7912C65.938 25.5081 66.2258 26.1443 66.6095 26.6997C67.0033 27.255 67.493 27.6943 68.0787 28.0174C68.6643 28.3304 69.3459 28.4869 70.1234 28.4869C70.8909 28.4869 71.5624 28.3304 72.1379 28.0174C72.7236 27.6943 73.2083 27.255 73.592 26.6997C73.9757 26.1443 74.2635 25.5081 74.4553 24.7912C74.6573 24.0642 74.7583 23.2917 74.7583 22.4738V22.1254C74.7583 21.3176 74.6573 20.5552 74.4553 19.8383C74.2635 19.1113 73.9706 18.4701 73.5768 17.9147C73.1931 17.3493 72.7084 16.905 72.1228 16.5818C71.5472 16.2587 70.8707 16.0971 70.0931 16.0971C69.3257 16.0971 68.6492 16.2587 68.0635 16.5818C67.488 16.905 67.0033 17.3493 66.6095 17.9147C66.2258 18.4701 65.938 19.1113 65.7461 19.8383C65.5543 20.5552 65.4583 21.3176 65.4583 22.1254ZM80.3473 22.4738V22.1254C80.3473 20.944 80.519 19.8484 80.8623 18.8387C81.2056 17.8188 81.7004 16.9352 82.3466 16.188C82.9929 15.4307 83.7754 14.845 84.6943 14.431C85.6132 14.0069 86.6432 13.7949 87.7842 13.7949C88.9353 13.7949 89.9703 14.0069 90.8892 14.431C91.8182 14.845 92.6058 15.4307 93.2521 16.188C93.9084 16.9352 94.4082 17.8188 94.7516 18.8387C95.0949 19.8484 95.2665 20.944 95.2665 22.1254V22.4738C95.2665 23.6552 95.0949 24.7508 94.7516 25.7606C94.4082 26.7703 93.9084 27.6539 93.2521 28.4112C92.6058 29.1584 91.8232 29.7441 90.9044 30.1682C89.9956 30.5822 88.9656 30.7892 87.8145 30.7892C86.6634 30.7892 85.6284 30.5822 84.7095 30.1682C83.7906 29.7441 83.003 29.1584 82.3466 28.4112C81.7004 27.6539 81.2056 26.7703 80.8623 25.7606C80.519 24.7508 80.3473 23.6552 80.3473 22.4738ZM83.1494 22.1254V22.4738C83.1494 23.2917 83.2453 24.0642 83.4372 24.7912C83.629 25.5081 83.9168 26.1443 84.3005 26.6997C84.6943 27.255 85.1841 27.6943 85.7697 28.0174C86.3554 28.3304 87.037 28.4869 87.8145 28.4869C88.5819 28.4869 89.2534 28.3304 89.829 28.0174C90.4146 27.6943 90.8993 27.255 91.283 26.6997C91.6667 26.1443 91.9545 25.5081 92.1464 24.7912C92.3483 24.0642 92.4493 23.2917 92.4493 22.4738V22.1254C92.4493 21.3176 92.3483 20.5552 92.1464 19.8383C91.9545 19.1113 91.6617 18.4701 91.2679 17.9147C90.8842 17.3493 90.3995 16.905 89.8138 16.5818C89.2383 16.2587 88.5617 16.0971 87.7842 16.0971C87.0168 16.0971 86.3402 16.2587 85.7546 16.5818C85.179 16.905 84.6943 17.3493 84.3005 17.9147C83.9168 18.4701 83.629 19.1113 83.4372 19.8383C83.2453 20.5552 83.1494 21.3176 83.1494 22.1254ZM101.567 17.3543V30.4863H98.7502V14.0978H101.416L101.567 17.3543ZM100.992 21.671L99.6893 21.6256C99.6994 20.5048 99.8458 19.4698 100.129 18.5206C100.411 17.5613 100.83 16.7282 101.386 16.0214C101.941 15.3146 102.633 14.7693 103.461 14.3856C104.289 13.9918 105.248 13.7949 106.339 13.7949C107.106 13.7949 107.813 13.906 108.459 14.1281C109.105 14.3402 109.666 14.6784 110.14 15.1429C110.615 15.6074 110.983 16.2032 111.246 16.9302C111.509 17.6572 111.64 18.5357 111.64 19.5657V30.4863H108.838V19.702C108.838 18.8437 108.691 18.1571 108.399 17.6421C108.116 17.1271 107.712 16.7535 107.187 16.5212C106.662 16.2789 106.046 16.1577 105.339 16.1577C104.511 16.1577 103.819 16.3041 103.264 16.597C102.708 16.8898 102.264 17.2937 101.931 17.8087C101.598 18.3237 101.355 18.9144 101.204 19.5808C101.063 20.2372 100.992 20.9339 100.992 21.671ZM111.61 20.1261L109.731 20.7017C109.741 19.803 109.888 18.9396 110.171 18.1116C110.463 17.2836 110.883 16.5465 111.428 15.9002C111.983 15.254 112.665 14.7441 113.473 14.3705C114.28 13.9867 115.204 13.7949 116.244 13.7949C117.123 13.7949 117.9 13.911 118.577 14.1433C119.264 14.3755 119.839 14.734 120.304 15.2187C120.778 15.6932 121.137 16.3041 121.379 17.0514C121.621 17.7986 121.743 18.6872 121.743 19.7171V30.4863H118.925V19.6869C118.925 18.768 118.779 18.0561 118.486 17.5512C118.203 17.0362 117.799 16.6778 117.274 16.4758C116.759 16.2638 116.143 16.1577 115.426 16.1577C114.811 16.1577 114.265 16.2638 113.791 16.4758C113.316 16.6879 112.917 16.9807 112.594 17.3543C112.271 17.7178 112.024 18.1369 111.852 18.6115C111.69 19.086 111.61 19.5909 111.61 20.1261ZM132.784 30.7892C131.643 30.7892 130.608 30.5973 129.679 30.2136C128.76 29.8198 127.968 29.2695 127.301 28.5627C126.645 27.8558 126.14 27.0177 125.787 26.0484C125.433 25.079 125.256 24.0187 125.256 22.8676V22.2315C125.256 20.8986 125.453 19.7121 125.847 18.672C126.241 17.6219 126.776 16.7333 127.453 16.0063C128.129 15.2792 128.897 14.7289 129.755 14.3553C130.613 13.9817 131.502 13.7949 132.421 13.7949C133.592 13.7949 134.602 13.9968 135.45 14.4007C136.308 14.8047 137.01 15.3701 137.555 16.0971C138.101 16.8141 138.505 17.6623 138.767 18.6417C139.03 19.6111 139.161 20.6714 139.161 21.8225V23.0797H126.923V20.7925H136.359V20.5805C136.318 19.8535 136.167 19.1466 135.904 18.46C135.652 17.7734 135.248 17.2079 134.693 16.7636C134.137 16.3193 133.38 16.0971 132.421 16.0971C131.785 16.0971 131.199 16.2335 130.664 16.5061C130.129 16.7686 129.669 17.1624 129.285 17.6875C128.902 18.2126 128.604 18.8538 128.392 19.6111C128.18 20.3684 128.074 21.2419 128.074 22.2315V22.8676C128.074 23.6451 128.18 24.3772 128.392 25.0638C128.614 25.7404 128.932 26.3361 129.346 26.8511C129.77 27.3661 130.28 27.77 130.876 28.0628C131.482 28.3557 132.168 28.5021 132.936 28.5021C133.925 28.5021 134.763 28.3001 135.45 27.8962C136.137 27.4923 136.738 26.9521 137.252 26.2756L138.949 27.6236C138.595 28.1588 138.146 28.6687 137.601 29.1534C137.056 29.6381 136.384 30.0319 135.586 30.3348C134.799 30.6377 133.865 30.7892 132.784 30.7892ZM145.235 16.6727V30.4863H142.433V14.0978H145.159L145.235 16.6727ZM150.354 14.0069L150.339 16.6121C150.107 16.5616 149.885 16.5313 149.673 16.5212C149.471 16.5011 149.238 16.491 148.976 16.491C148.33 16.491 147.759 16.5919 147.264 16.7939C146.769 16.9958 146.35 17.2786 146.007 17.6421C145.664 18.0056 145.391 18.4398 145.189 18.9447C144.997 19.4395 144.871 19.9847 144.811 20.5805L144.023 21.0349C144.023 20.0453 144.119 19.1163 144.311 18.2479C144.513 17.3795 144.821 16.6121 145.235 15.9457C145.649 15.2691 146.174 14.7441 146.81 14.3705C147.456 13.9867 148.224 13.7949 149.112 13.7949C149.314 13.7949 149.546 13.8201 149.809 13.8706C150.071 13.911 150.253 13.9564 150.354 14.0069ZM53.735 63.6842V55.2476C53.735 54.6014 53.6037 54.0409 53.3412 53.5664C53.0887 53.0817 52.705 52.7081 52.1901 52.4455C51.6751 52.183 51.0389 52.0517 50.2816 52.0517C49.5748 52.0517 48.9538 52.1729 48.4186 52.4152C47.8935 52.6576 47.4795 52.9756 47.1766 53.3694C46.8838 53.7633 46.7373 54.1874 46.7373 54.6417H43.9352C43.9352 54.0561 44.0867 53.4755 44.3896 52.8999C44.6926 52.3243 45.1268 51.8043 45.6922 51.3398C46.2678 50.8652 46.9544 50.4916 47.7521 50.219C48.56 49.9363 49.4586 49.7949 50.4482 49.7949C51.6397 49.7949 52.6899 49.9968 53.5987 50.4007C54.5176 50.8047 55.2345 51.4156 55.7495 52.2335C56.2745 53.0413 56.5371 54.0561 56.5371 55.2779V62.9117C56.5371 63.457 56.5825 64.0376 56.6734 64.6535C56.7744 65.2695 56.9208 65.7996 57.1126 66.2439V66.4863H54.1894C54.048 66.1631 53.9369 65.734 53.8562 65.1988C53.7754 64.6535 53.735 64.1487 53.735 63.6842ZM54.2197 56.5502L54.25 58.5192H51.4176C50.6199 58.5192 49.908 58.5849 49.2819 58.7161C48.6559 58.8373 48.1308 59.0241 47.7067 59.2766C47.2826 59.529 46.9595 59.8471 46.7373 60.2308C46.5152 60.6044 46.4041 61.0436 46.4041 61.5485C46.4041 62.0635 46.5202 62.533 46.7525 62.9571C46.9847 63.3812 47.3331 63.7195 47.7976 63.972C48.2722 64.2143 48.8528 64.3355 49.5394 64.3355C50.3977 64.3355 51.155 64.1537 51.8114 63.7902C52.4677 63.4267 52.9878 62.9824 53.3715 62.4573C53.7653 61.9322 53.9773 61.4223 54.0076 60.9275L55.2042 62.2756C55.1335 62.6997 54.9417 63.1692 54.6286 63.6842C54.3156 64.1992 53.8966 64.6939 53.3715 65.1685C52.8565 65.633 52.2405 66.0218 51.5236 66.3348C50.8168 66.6377 50.0191 66.7892 49.1305 66.7892C48.0197 66.7892 47.0453 66.5721 46.2072 66.1379C45.3792 65.7037 44.733 65.1231 44.2685 64.3961C43.8141 63.6589 43.5869 62.836 43.5869 61.9272C43.5869 61.0487 43.7585 60.2762 44.1019 59.6098C44.4452 58.9332 44.94 58.3728 45.5862 57.9285C46.2325 57.4741 47.01 57.1308 47.9188 56.8986C48.8275 56.6663 49.8424 56.5502 50.9632 56.5502H54.2197ZM63.7468 53.5966V66.4863H60.9447V50.0978H63.5953L63.7468 53.5966ZM63.0803 57.671L61.9141 57.6256C61.9242 56.5048 62.0908 55.4698 62.4139 54.5206C62.737 53.5613 63.1914 52.7282 63.7771 52.0214C64.3627 51.3146 65.0595 50.7693 65.8673 50.3856C66.6852 49.9918 67.5889 49.7949 68.5785 49.7949C69.3863 49.7949 70.1133 49.906 70.7596 50.1281C71.4058 50.3402 71.9562 50.6835 72.4106 51.1581C72.875 51.6327 73.2285 52.2486 73.4708 53.0059C73.7131 53.7532 73.8343 54.667 73.8343 55.7474V66.4863H71.0171V55.7171C71.0171 54.8588 70.8909 54.1722 70.6384 53.6572C70.386 53.1322 70.0174 52.7535 69.5327 52.5212C69.048 52.2789 68.4523 52.1577 67.7455 52.1577C67.0487 52.1577 66.4126 52.3041 65.837 52.597C65.2715 52.8898 64.7818 53.2937 64.3678 53.8087C63.9639 54.3237 63.6458 54.9144 63.4136 55.5808C63.1914 56.2372 63.0803 56.9339 63.0803 57.671ZM88.7081 50.0978H91.2527V66.1379C91.2527 67.5819 90.9599 68.8138 90.3742 69.8336C89.7886 70.8535 88.9707 71.626 87.9205 72.151C86.8805 72.6862 85.6788 72.9538 84.3157 72.9538C83.7502 72.9538 83.0837 72.8629 82.3163 72.6812C81.559 72.5095 80.8118 72.2116 80.0747 71.7875C79.3476 71.3735 78.7367 70.8131 78.2419 70.1063L79.7111 68.4402C80.3978 69.2682 81.1147 69.8437 81.8619 70.1669C82.6193 70.49 83.3665 70.6515 84.1036 70.6515C84.9922 70.6515 85.7596 70.4849 86.4059 70.1517C87.0521 69.8185 87.5519 69.3237 87.9054 68.6674C88.2689 68.0211 88.4506 67.2234 88.4506 66.2742V53.7027L88.7081 50.0978ZM77.424 58.4738V58.1557C77.424 56.9036 77.5704 55.7676 77.8633 54.7478C78.1662 53.7178 78.5954 52.8343 79.1507 52.0971C79.7162 51.36 80.3978 50.7946 81.1955 50.4007C81.9932 49.9968 82.8919 49.7949 83.8916 49.7949C84.9215 49.7949 85.8202 49.9766 86.5876 50.3402C87.3651 50.6936 88.0215 51.2136 88.5567 51.9002C89.1019 52.5768 89.5311 53.3947 89.8441 54.354C90.1571 55.3132 90.3742 56.3987 90.4954 57.6105V59.0039C90.3843 60.2055 90.1672 61.286 89.8441 62.2453C89.5311 63.2045 89.1019 64.0224 88.5567 64.699C88.0215 65.3755 87.3651 65.8956 86.5876 66.2591C85.8101 66.6125 84.9013 66.7892 83.8613 66.7892C82.8818 66.7892 81.9932 66.5822 81.1955 66.1682C80.4079 65.7542 79.7313 65.1736 79.1659 64.4264C78.6004 63.6791 78.1662 62.8006 77.8633 61.7909C77.5704 60.771 77.424 59.6653 77.424 58.4738ZM80.2261 58.1557V58.4738C80.2261 59.2917 80.3069 60.0591 80.4685 60.7761C80.6401 61.493 80.8976 62.1241 81.2409 62.6694C81.5943 63.2146 82.0437 63.6438 82.589 63.9568C83.1342 64.2597 83.7855 64.4112 84.5429 64.4112C85.4718 64.4112 86.2393 64.2143 86.8451 63.8205C87.451 63.4267 87.9306 62.9067 88.284 62.2604C88.6475 61.6142 88.9303 60.9124 89.1322 60.1551V56.5048C89.0212 55.9494 88.8495 55.4142 88.6172 54.8992C88.3951 54.3742 88.1023 53.9097 87.7388 53.5058C87.3853 53.0918 86.9461 52.7636 86.421 52.5212C85.8959 52.2789 85.28 52.1577 84.5731 52.1577C83.8057 52.1577 83.1443 52.3193 82.589 52.6424C82.0437 52.9554 81.5943 53.3896 81.2409 53.945C80.8976 54.4903 80.6401 55.1264 80.4685 55.8535C80.3069 56.5704 80.2261 57.3378 80.2261 58.1557Z" fill="#999999"/>
<path d="M11.9258 18.3166C17.0454 13.4127 23.9528 17.0448 21.0644 25.6265C18.1761 34.2031 -8.23257 18.3064 2.59038 26.2065C13.4133 34.1065 17.5858 50.1966 22.015 34.9866C26.4442 19.7765 31.7807 -13.1361 16.7719 6.86585C1.76323 26.8678 5.53542 24.4311 11.9258 18.3166Z" fill="#999999"/>
</svg>
