<svg width="127" height="90" viewBox="0 0 127 90" fill="none" xmlns="http://www.w3.org/2000/svg">
<path d="M55.5026 23.7782H48.5857L48.5482 20.8727H54.8277C55.865 20.8727 56.771 20.6978 57.5458 20.3479C58.3205 19.998 58.9204 19.4981 59.3453 18.8483C59.7826 18.186 60.0013 17.3987 60.0013 16.4864C60.0013 15.4867 59.8076 14.6744 59.4202 14.0496C59.0453 13.4123 58.4643 12.9499 57.677 12.6625C56.9022 12.3625 55.915 12.2126 54.7153 12.2126H49.3917V36.5435H45.774V9.2509H54.7153C56.1149 9.2509 57.3646 9.39461 58.4643 9.68203C59.564 9.95696 60.495 10.3943 61.2572 10.9942C62.032 11.5815 62.6194 12.3313 63.0193 13.2436C63.4192 14.1558 63.6191 15.2493 63.6191 16.5239C63.6191 17.6486 63.3317 18.6671 62.7568 19.5793C62.182 20.4791 61.3822 21.2164 60.3575 21.7912C59.3453 22.3661 58.1581 22.7347 56.796 22.8972L55.5026 23.7782ZM55.3339 36.5435H47.1611L49.2043 33.6005H55.3339C56.4835 33.6005 57.4583 33.4006 58.2581 33.0007C59.0703 32.6008 59.6889 32.0384 60.1138 31.3136C60.5387 30.5763 60.7511 29.7078 60.7511 28.7081C60.7511 27.6959 60.5699 26.8211 60.2075 26.0838C59.8451 25.3465 59.2765 24.7779 58.5017 24.378C57.727 23.9781 56.7272 23.7782 55.5026 23.7782H50.3477L50.3852 20.8727H57.4333L58.2018 21.9224C59.514 22.0349 60.6262 22.4098 61.5384 23.0471C62.4507 23.672 63.1442 24.4717 63.6191 25.4465C64.1065 26.4212 64.3502 27.4959 64.3502 28.6706C64.3502 30.3701 63.9753 31.8072 63.2255 32.9819C62.4882 34.1441 61.4447 35.0314 60.0951 35.6437C58.7454 36.2435 57.1584 36.5435 55.3339 36.5435ZM72.9353 7.75131V36.5435H69.4488V7.75131H72.9353ZM82.2703 16.2615V36.5435H78.7837V16.2615H82.2703ZM78.5213 10.8817C78.5213 10.3194 78.69 9.84449 79.0274 9.45709C79.3773 9.0697 79.8897 8.876 80.5645 8.876C81.2268 8.876 81.7329 9.0697 82.0828 9.45709C82.4452 9.84449 82.6264 10.3194 82.6264 10.8817C82.6264 11.4191 82.4452 11.8814 82.0828 12.2688C81.7329 12.6437 81.2268 12.8312 80.5645 12.8312C79.8897 12.8312 79.3773 12.6437 79.0274 12.2688C78.69 11.8814 78.5213 11.4191 78.5213 10.8817ZM91.2866 20.2916V36.5435H87.8V16.2615H91.0991L91.2866 20.2916ZM90.5743 25.6339L88.9622 25.5777C88.9747 24.1906 89.1559 22.9097 89.5058 21.735C89.8557 20.5478 90.3743 19.5168 91.0616 18.6421C91.7489 17.7673 92.6049 17.0925 93.6297 16.6176C94.6544 16.1303 95.8416 15.8866 97.1912 15.8866C98.1409 15.8866 99.0157 16.0241 99.8155 16.299C100.615 16.5614 101.309 16.98 101.896 17.5549C102.484 18.1297 102.94 18.867 103.265 19.7668C103.589 20.6665 103.752 21.7537 103.752 23.0284V36.5435H100.284V23.1971C100.284 22.1349 100.103 21.2851 99.7405 20.6478C99.3906 20.0105 98.8907 19.5481 98.2409 19.2607C97.5911 18.9608 96.8288 18.8108 95.954 18.8108C94.9293 18.8108 94.0733 18.992 93.386 19.3544C92.6987 19.7168 92.1488 20.2167 91.7364 20.854C91.324 21.4913 91.0241 22.2224 90.8367 23.0471C90.6617 23.8594 90.5743 24.7217 90.5743 25.6339ZM103.714 23.722L101.39 24.4343C101.403 23.3221 101.584 22.2536 101.934 21.2289C102.296 20.2042 102.815 19.2919 103.489 18.4921C104.177 17.6923 105.02 17.0613 106.02 16.5989C107.02 16.124 108.163 15.8866 109.45 15.8866C110.538 15.8866 111.5 16.0303 112.337 16.3177C113.187 16.6051 113.899 17.0488 114.474 17.6486C115.061 18.2359 115.505 18.992 115.805 19.9167C116.105 20.8415 116.255 21.9412 116.255 23.2158V36.5435H112.768V23.1784C112.768 22.0412 112.587 21.1602 112.225 20.5353C111.875 19.898 111.375 19.4544 110.725 19.2044C110.088 18.942 109.325 18.8108 108.438 18.8108C107.676 18.8108 107.001 18.942 106.414 19.2044C105.826 19.4669 105.333 19.8293 104.933 20.2916C104.533 20.7415 104.227 21.2601 104.014 21.8475C103.814 22.4348 103.714 23.0596 103.714 23.722ZM48.7169 65.1604V89.3413H45.2304V61.2615H48.417L48.7169 65.1604ZM62.3819 71.2338V71.6274C62.3819 73.102 62.207 74.4704 61.8571 75.7325C61.5072 76.9822 60.9948 78.0694 60.32 78.9942C59.6577 79.9189 58.8392 80.6375 57.8644 81.1498C56.8897 81.6622 55.7712 81.9184 54.5091 81.9184C53.2219 81.9184 52.0847 81.7059 51.0975 81.281C50.1103 80.8561 49.273 80.2376 48.5857 79.4253C47.8984 78.613 47.3485 77.6383 46.9361 76.5011C46.5363 75.3639 46.2613 74.083 46.1114 72.6584V70.559C46.2613 69.0594 46.5425 67.716 46.9549 66.5288C47.3673 65.3416 47.9109 64.3294 48.5857 63.4921C49.273 62.6424 50.104 61.9988 51.0788 61.5614C52.0535 61.1115 53.1782 60.8866 54.4528 60.8866C55.7275 60.8866 56.8584 61.1365 57.8457 61.6364C58.8329 62.1238 59.6639 62.8236 60.3387 63.7358C61.0136 64.6481 61.5197 65.7415 61.8571 67.0162C62.207 68.2783 62.3819 69.6842 62.3819 71.2338ZM58.8954 71.6274V71.2338C58.8954 70.2215 58.7892 69.2718 58.5767 68.3845C58.3643 67.4848 58.0331 66.6975 57.5832 66.0227C57.1459 65.3354 56.5835 64.798 55.8962 64.4106C55.2089 64.0107 54.3904 63.8108 53.4406 63.8108C52.5659 63.8108 51.8036 63.9608 51.1537 64.2607C50.5164 64.5606 49.9728 64.9667 49.5229 65.4791C49.0731 65.979 48.7044 66.5538 48.417 67.2036C48.1421 67.8409 47.9359 68.5033 47.7984 69.1906V74.0455C48.0483 74.9203 48.3983 75.745 48.8481 76.5198C49.298 77.2821 49.8978 77.9007 50.6476 78.3756C51.3974 78.8379 52.3409 79.0691 53.4781 79.0691C54.4154 79.0691 55.2214 78.8754 55.8962 78.488C56.5835 78.0881 57.1459 77.5445 57.5832 76.8572C58.0331 76.1699 58.3643 75.3826 58.5767 74.4954C58.7892 73.5956 58.8954 72.6396 58.8954 71.6274Z" fill="#999999"/>
<path d="M29.265 16.4782C28.2075 16.4782 27.3502 14.2007 27.3502 11.3913C27.3502 8.58183 28.2075 6.30432 29.265 6.30432C30.3225 6.30432 31.1798 8.58183 31.1798 11.3913C31.1798 14.2007 30.3225 16.4782 29.265 16.4782Z" fill="#999999"/>
<path d="M11.4667 11.3913C10.8681 11.3913 10.2819 11.4777 9.70809 11.6304C9.11573 8.54257 7.36332 6.30432 5.29621 6.30432C2.74164 6.30432 0.668365 9.72276 0.668365 13.9348C0.668365 16.2697 1.30701 18.3604 2.30971 19.7593C1.26999 22.4961 0.668365 25.7263 0.668365 29.1956C0.668365 39.0287 5.50292 47 11.4667 47C17.4304 47 22.265 39.0287 22.265 29.1956C22.265 19.3625 17.4304 11.3913 11.4667 11.3913ZM15.678 34.2826C15.1443 32.7616 14.1508 31.7391 13.0093 31.7391C11.8678 31.7391 10.8743 32.7616 10.3406 34.2826C10.0783 33.5348 9.92406 32.665 9.92406 31.7391C9.92406 28.9311 11.3062 26.6522 13.0093 26.6522C14.7123 26.6522 16.0945 28.9311 16.0945 31.7391C16.0945 32.665 15.9403 33.5348 15.678 34.2826Z" fill="#999999"/>
</svg>
