<svg width="109" height="82" viewBox="0 0 109 82" fill="none" xmlns="http://www.w3.org/2000/svg">
<path d="M61.6447 43.7979V19.617L61.9446 15.718H65.1312V43.7979H61.6447ZM48.0171 26.084V25.6903C48.0171 24.1407 48.1984 22.7349 48.5608 21.4727C48.9232 20.1981 49.4543 19.1046 50.1541 18.1924C50.8539 17.2801 51.6974 16.5803 52.6846 16.0929C53.6844 15.5931 54.8215 15.3431 56.0962 15.3431C57.3708 15.3431 58.4893 15.5681 59.4515 16.0179C60.4263 16.4553 61.251 17.0989 61.9259 17.9487C62.6132 18.7859 63.1568 19.7982 63.5567 20.9853C63.9566 22.1725 64.2315 23.5159 64.3814 25.0155V26.74C64.244 28.2271 63.9753 29.5643 63.5754 30.7514C63.1755 31.9386 62.6319 32.9508 61.9446 33.7881C61.2698 34.6254 60.4388 35.2689 59.4515 35.7188C58.4768 36.1562 57.3459 36.3749 56.0587 36.3749C54.809 36.3749 53.6844 36.1187 52.6846 35.6064C51.6974 35.094 50.8539 34.3754 50.1541 33.4507C49.4668 32.5259 48.9356 31.4387 48.5608 30.1891C48.1984 28.9269 48.0171 27.5586 48.0171 26.084ZM51.5037 25.6903V26.084C51.5037 27.0962 51.6099 28.0522 51.8224 28.9519C52.0348 29.8392 52.3597 30.6265 52.7971 31.3138C53.247 32.0011 53.8093 32.5447 54.4841 32.9446C55.1714 33.332 55.9837 33.5257 56.921 33.5257C58.0707 33.5257 59.0266 33.2757 59.7889 32.7759C60.5637 32.276 61.1823 31.6199 61.6447 30.8077C62.1071 29.9829 62.4632 29.1019 62.7131 28.1646V23.6471C62.5757 22.9598 62.357 22.2912 62.0571 21.6414C61.7697 20.9916 61.3948 20.4105 60.9324 19.8981C60.47 19.3733 59.9077 18.9609 59.2453 18.661C58.5955 18.3486 57.8332 18.1924 56.9585 18.1924C56.0087 18.1924 55.1902 18.3923 54.5029 18.7922C53.8156 19.1921 53.247 19.7419 52.7971 20.4417C52.3597 21.1291 52.0348 21.9226 51.8224 22.8223C51.6099 23.7221 51.5037 24.6781 51.5037 25.6903ZM74.1663 18.9047V36H70.6985V15.718H74.0725L74.1663 18.9047ZM80.502 15.6056L80.4833 18.8297C80.1959 18.7672 79.921 18.7297 79.6585 18.7172C79.4086 18.6922 79.1212 18.6797 78.7963 18.6797C77.9965 18.6797 77.2904 18.8047 76.6781 19.0546C76.0658 19.3046 75.5471 19.6545 75.1223 20.1043C74.6974 20.5542 74.36 21.0916 74.11 21.7164C73.8726 22.3287 73.7164 23.0035 73.6414 23.7408L72.6667 24.3032C72.6667 23.0785 72.7854 21.9288 73.0228 20.8541C73.2728 19.7794 73.6539 18.8297 74.1663 18.0049C74.6786 17.1676 75.3285 16.5178 76.1157 16.0554C76.9155 15.5806 77.8653 15.3431 78.965 15.3431C79.2149 15.3431 79.5023 15.3744 79.8272 15.4369C80.1521 15.4868 80.3771 15.5431 80.502 15.6056ZM91.4491 33.5257C92.2738 33.5257 93.0361 33.357 93.7359 33.0196C94.4357 32.6822 95.0106 32.2198 95.4605 31.6324C95.9103 31.0326 96.1665 30.3515 96.229 29.5892H99.5281C99.4656 30.7889 99.0595 31.9074 98.3097 32.9446C97.5724 33.9693 96.6039 34.8003 95.4042 35.4377C94.2046 36.0625 92.8862 36.3749 91.4491 36.3749C89.9245 36.3749 88.5936 36.1062 87.4564 35.5689C86.3317 35.0315 85.3945 34.2942 84.6447 33.357C83.9074 32.4197 83.3513 31.345 82.9764 30.1328C82.614 28.9082 82.4328 27.6148 82.4328 26.2527V25.4654C82.4328 24.1032 82.614 22.8161 82.9764 21.6039C83.3513 20.3793 83.9074 19.2983 84.6447 18.3611C85.3945 17.4238 86.3317 16.6865 87.4564 16.1492C88.5936 15.6118 89.9245 15.3431 91.4491 15.3431C93.0361 15.3431 94.4233 15.668 95.6104 16.3179C96.7976 16.9552 97.7286 17.83 98.4034 18.9422C99.0907 20.0419 99.4656 21.2915 99.5281 22.6911H96.229C96.1665 21.8539 95.9291 21.0978 95.5167 20.423C95.1168 19.7482 94.567 19.2108 93.8672 18.8109C93.1798 18.3985 92.3738 18.1924 91.4491 18.1924C90.3869 18.1924 89.4933 18.4048 88.7685 18.8297C88.0562 19.2421 87.4876 19.8044 87.0628 20.5167C86.6504 21.2165 86.3505 21.9976 86.163 22.8598C85.9881 23.7096 85.9006 24.5781 85.9006 25.4654V26.2527C85.9006 27.1399 85.9881 28.0147 86.163 28.8769C86.338 29.7392 86.6316 30.5202 87.044 31.2201C87.4689 31.9199 88.0375 32.4822 88.7498 32.9071C89.4746 33.3195 90.3744 33.5257 91.4491 33.5257ZM47.9609 71.084V70.6528C47.9609 69.1907 48.1734 67.8348 48.5982 66.5852C49.0231 65.323 49.6355 64.2296 50.4352 63.3048C51.235 62.3676 52.2035 61.6428 53.3407 61.1304C54.4779 60.6056 55.7525 60.3431 57.1647 60.3431C58.5893 60.3431 59.8702 60.6056 61.0074 61.1304C62.157 61.6428 63.1318 62.3676 63.9316 63.3048C64.7438 64.2296 65.3624 65.323 65.7873 66.5852C66.2122 67.8348 66.4246 69.1907 66.4246 70.6528V71.084C66.4246 72.5461 66.2122 73.9019 65.7873 75.1516C65.3624 76.4013 64.7438 77.4947 63.9316 78.432C63.1318 79.3567 62.1633 80.0815 61.0261 80.6064C59.9014 81.1187 58.6268 81.3749 57.2021 81.3749C55.7775 81.3749 54.4966 81.1187 53.3594 80.6064C52.2223 80.0815 51.2475 79.3567 50.4352 78.432C49.6355 77.4947 49.0231 76.4013 48.5982 75.1516C48.1734 73.9019 47.9609 72.5461 47.9609 71.084ZM51.4287 70.6528V71.084C51.4287 72.0962 51.5474 73.0522 51.7849 73.9519C52.0223 74.8392 52.3785 75.6265 52.8533 76.3138C53.3407 77.0011 53.9468 77.5447 54.6716 77.9446C55.3964 78.332 56.2399 78.5257 57.2021 78.5257C58.1519 78.5257 58.9829 78.332 59.6952 77.9446C60.42 77.5447 61.0199 77.0011 61.4947 76.3138C61.9696 75.6265 62.3257 74.8392 62.5632 73.9519C62.8131 73.0522 62.9381 72.0962 62.9381 71.084V70.6528C62.9381 69.6531 62.8131 68.7096 62.5632 67.8223C62.3257 66.9226 61.9633 66.1291 61.476 65.4417C61.0011 64.7419 60.4013 64.1921 59.6765 63.7922C58.9642 63.3923 58.1269 63.1924 57.1647 63.1924C56.2149 63.1924 55.3776 63.3923 54.6528 63.7922C53.9405 64.1921 53.3407 64.7419 52.8533 65.4417C52.3785 66.1291 52.0223 66.9226 51.7849 67.8223C51.5474 68.7096 51.4287 69.6531 51.4287 70.6528Z" fill="#999999"/>
<path d="M5.55439 5.51587H4.2987V20.7768H5.55439V5.51587Z" fill="#999999"/>
<path d="M15.7249 5.51587H24.6396V15.6898H15.7249V5.51587Z" fill="#999999"/>
<path d="M30.9806 5.51587H34.8101V20.7768H30.9806V5.51587Z" fill="#999999"/>
<path d="M20.8101 20.7766H19.5544V46.2114H20.8101V20.7766Z" fill="#999999"/>
<path d="M0.469177 36.0375H4.29871V46.2114H0.469177V36.0375Z" fill="#999999"/>
<path d="M0.469193 25.8636H4.29873V30.9505H0.469193V25.8636Z" fill="#999999"/>
<path opacity="0.8902" d="M30.9806 36.0375H39.8953V46.2114H30.9806V36.0375Z" fill="#999999"/>
<path d="M30.9806 25.8636H39.8954V30.9505H30.9806V25.8636Z" fill="#999999"/>
</svg>
