<svg width="154" height="67" viewBox="0 0 154 67" fill="none" xmlns="http://www.w3.org/2000/svg">
<path d="M62.0477 18.7391V20.1325C62.0477 21.7885 61.8407 23.2729 61.4267 24.5856C61.0127 25.8983 60.4169 27.0141 59.6394 27.9329C58.8619 28.8518 57.9278 29.5536 56.8373 30.0383C55.7568 30.523 54.5451 30.7653 53.2021 30.7653C51.8996 30.7653 50.703 30.523 49.6124 30.0383C48.532 29.5536 47.5929 28.8518 46.7952 27.9329C46.0076 27.0141 45.3967 25.8983 44.9625 24.5856C44.5283 23.2729 44.3112 21.7885 44.3112 20.1325V18.7391C44.3112 17.083 44.5232 15.6037 44.9473 14.3011C45.3815 12.9885 45.9924 11.8727 46.7801 10.9538C47.5677 10.0248 48.5017 9.31797 49.5821 8.83328C50.6727 8.3486 51.8693 8.10625 53.1719 8.10625C54.5148 8.10625 55.7266 8.3486 56.807 8.83328C57.8975 9.31797 58.8316 10.0248 59.6091 10.9538C60.3967 11.8727 60.9975 12.9885 61.4115 14.3011C61.8356 15.6037 62.0477 17.083 62.0477 18.7391ZM59.1547 20.1325V18.7088C59.1547 17.3961 59.0184 16.2348 58.7457 15.2251C58.4832 14.2153 58.0944 13.3671 57.5795 12.6805C57.0645 11.9938 56.4334 11.4738 55.6862 11.1204C54.949 10.767 54.1109 10.5903 53.1719 10.5903C52.2631 10.5903 51.4401 10.767 50.703 11.1204C49.976 11.4738 49.3499 11.9938 48.8248 12.6805C48.3098 13.3671 47.911 14.2153 47.6283 15.2251C47.3455 16.2348 47.2042 17.3961 47.2042 18.7088V20.1325C47.2042 21.4553 47.3455 22.6266 47.6283 23.6465C47.911 24.6563 48.3149 25.5095 48.84 26.2063C49.3751 26.8929 50.0062 27.4129 50.7333 27.7663C51.4704 28.1198 52.2934 28.2965 53.2021 28.2965C54.1513 28.2965 54.9945 28.1198 55.7316 27.7663C56.4687 27.4129 57.0897 26.8929 57.5946 26.2063C58.1096 25.5095 58.4984 24.6563 58.7609 23.6465C59.0234 22.6266 59.1547 21.4553 59.1547 20.1325ZM68.803 17.2244V36.7633H65.9857V14.074H68.5606L68.803 17.2244ZM79.8447 22.1319V22.4499C79.8447 23.6415 79.7034 24.7471 79.4206 25.767C79.1379 26.7768 78.7239 27.6553 78.1786 28.4025C77.6435 29.1497 76.9821 29.7303 76.1944 30.1443C75.4068 30.5583 74.5031 30.7653 73.4832 30.7653C72.4432 30.7653 71.5243 30.5937 70.7266 30.2504C69.9289 29.907 69.2523 29.4072 68.697 28.7509C68.1416 28.0945 67.6973 27.3069 67.3641 26.388C67.0409 25.4691 66.8188 24.4341 66.6976 23.283V21.5866C66.8188 20.3749 67.046 19.2894 67.3792 18.3301C67.7124 17.3708 68.1517 16.5529 68.697 15.8764C69.2523 15.1897 69.9238 14.6697 70.7114 14.3163C71.499 13.9528 72.4078 13.771 73.4378 13.771C74.4678 13.771 75.3816 13.973 76.1793 14.3769C76.977 14.7707 77.6485 15.3362 78.1938 16.0733C78.739 16.8104 79.148 17.694 79.4206 18.7239C79.7034 19.7438 79.8447 20.8798 79.8447 22.1319ZM77.0275 22.4499V22.1319C77.0275 21.314 76.9417 20.5465 76.77 19.8296C76.5984 19.1026 76.3308 18.4664 75.9672 17.9211C75.6138 17.3658 75.1594 16.9316 74.6041 16.6186C74.0487 16.2954 73.3873 16.1339 72.6199 16.1339C71.9131 16.1339 71.2971 16.255 70.772 16.4974C70.257 16.7397 69.8178 17.0679 69.4543 17.4819C69.0908 17.8858 68.7929 18.3503 68.5606 18.8754C68.3385 19.3904 68.1719 19.9255 68.0608 20.4809V24.4038C68.2628 25.1107 68.5455 25.7771 68.909 26.4032C69.2725 27.0191 69.7572 27.5189 70.3631 27.9027C70.9689 28.2763 71.7313 28.4631 72.6502 28.4631C73.4075 28.4631 74.0588 28.3066 74.6041 27.9935C75.1594 27.6704 75.6138 27.2312 75.9672 26.6758C76.3308 26.1204 76.5984 25.4843 76.77 24.7673C76.9417 24.0403 77.0275 23.2678 77.0275 22.4499ZM90.2201 30.7653C89.079 30.7653 88.044 30.5735 87.115 30.1898C86.1961 29.796 85.4035 29.2456 84.737 28.5388C84.0807 27.832 83.5758 26.9939 83.2224 26.0245C82.869 25.0551 82.6923 23.9949 82.6923 22.8437V22.2076C82.6923 20.8747 82.8892 19.6882 83.283 18.6482C83.6768 17.598 84.212 16.7094 84.8885 15.9824C85.565 15.2554 86.3325 14.7051 87.1908 14.3314C88.0491 13.9578 88.9377 13.771 89.8565 13.771C91.0279 13.771 92.0376 13.973 92.8858 14.3769C93.7441 14.7808 94.4459 15.3463 94.9912 16.0733C95.5365 16.7902 95.9404 17.6384 96.2029 18.6179C96.4654 19.5873 96.5967 20.6475 96.5967 21.7986V23.0558H84.3584V20.7687H93.7946V20.5566C93.7542 19.8296 93.6028 19.1228 93.3402 18.4361C93.0878 17.7495 92.6839 17.184 92.1285 16.7397C91.5731 16.2954 90.8158 16.0733 89.8565 16.0733C89.2204 16.0733 88.6347 16.2096 88.0996 16.4822C87.5644 16.7448 87.1049 17.1386 86.7212 17.6637C86.3375 18.1887 86.0396 18.8299 85.8276 19.5873C85.6155 20.3446 85.5095 21.218 85.5095 22.2076V22.8437C85.5095 23.6213 85.6155 24.3533 85.8276 25.04C86.0497 25.7165 86.3678 26.3123 86.7818 26.8273C87.2059 27.3422 87.7158 27.7461 88.3116 28.039C88.9175 28.3318 89.6041 28.4782 90.3715 28.4782C91.3611 28.4782 92.1992 28.2763 92.8858 27.8724C93.5725 27.4685 94.1733 26.9282 94.6883 26.2517L96.3847 27.5997C96.0312 28.1349 95.5819 28.6448 95.0366 29.1295C94.4914 29.6142 93.8199 30.008 93.0221 30.3109C92.2345 30.6139 91.3005 30.7653 90.2201 30.7653ZM102.67 17.5728V30.4624H99.8683V14.074H102.519L102.67 17.5728ZM102.004 21.6472L100.838 21.6017C100.848 20.4809 101.014 19.4459 101.338 18.4967C101.661 17.5374 102.115 16.7044 102.701 15.9975C103.286 15.2907 103.983 14.7454 104.791 14.3617C105.609 13.9679 106.513 13.771 107.502 13.771C108.31 13.771 109.037 13.8821 109.683 14.1042C110.329 14.3163 110.88 14.6596 111.334 15.1342C111.799 15.6088 112.152 16.2247 112.394 16.9821C112.637 17.7293 112.758 18.6431 112.758 19.7236V30.4624H109.941V19.6933C109.941 18.835 109.815 18.1483 109.562 17.6334C109.31 17.1083 108.941 16.7296 108.456 16.4974C107.972 16.255 107.376 16.1339 106.669 16.1339C105.972 16.1339 105.336 16.2803 104.761 16.5731C104.195 16.8659 103.705 17.2699 103.291 17.7848C102.888 18.2998 102.569 18.8905 102.337 19.557C102.115 20.2133 102.004 20.91 102.004 21.6472ZM123.406 30.4624H118.801L118.832 28.0844H123.406C124.981 28.0844 126.294 27.7562 127.344 27.0999C128.394 26.4334 129.182 25.5045 129.707 24.3129C130.242 23.1113 130.51 21.7078 130.51 20.1022V18.7542C130.51 17.492 130.358 16.3712 130.055 15.3917C129.752 14.4021 129.308 13.5691 128.722 12.8925C128.137 12.2059 127.42 11.6859 126.572 11.3324C125.733 10.979 124.769 10.8023 123.679 10.8023H118.711V8.40918H123.679C125.123 8.40918 126.44 8.65152 127.632 9.13621C128.823 9.6108 129.848 10.3025 130.706 11.2113C131.575 12.11 132.241 13.2005 132.706 14.4829C133.17 15.7552 133.403 17.1891 133.403 18.7845V20.1022C133.403 21.6977 133.17 23.1366 132.706 24.419C132.241 25.6913 131.57 26.7768 130.691 27.6755C129.823 28.5741 128.773 29.2658 127.541 29.7505C126.319 30.2251 124.941 30.4624 123.406 30.4624ZM120.361 8.40918V30.4624H117.438V8.40918H120.361ZM43.9022 58.4499V58.1016C43.9022 56.9201 44.0739 55.8246 44.4172 54.8148C44.7605 53.7949 45.2553 52.9114 45.9016 52.1642C46.5478 51.4068 47.3304 50.8212 48.2493 50.4072C49.1681 49.9831 50.1981 49.771 51.3391 49.771C52.4903 49.771 53.5253 49.9831 54.4442 50.4072C55.3731 50.8212 56.1608 51.4068 56.807 52.1642C57.4633 52.9114 57.9632 53.7949 58.3065 54.8148C58.6498 55.8246 58.8215 56.9201 58.8215 58.1016V58.4499C58.8215 59.6314 58.6498 60.7269 58.3065 61.7367C57.9632 62.7465 57.4633 63.63 56.807 64.3873C56.1608 65.1346 55.3782 65.7202 54.4593 66.1443C53.5505 66.5583 52.5206 66.7653 51.3694 66.7653C50.2183 66.7653 49.1833 66.5583 48.2644 66.1443C47.3455 65.7202 46.5579 65.1346 45.9016 64.3873C45.2553 63.63 44.7605 62.7465 44.4172 61.7367C44.0739 60.7269 43.9022 59.6314 43.9022 58.4499ZM46.7043 58.1016V58.4499C46.7043 59.2678 46.8003 60.0403 46.9921 60.7673C47.184 61.4843 47.4717 62.1204 47.8555 62.6758C48.2493 63.2312 48.739 63.6704 49.3247 63.9935C49.9103 64.3066 50.5919 64.4631 51.3694 64.4631C52.1368 64.4631 52.8083 64.3066 53.3839 63.9935C53.9696 63.6704 54.4543 63.2312 54.838 62.6758C55.2217 62.1204 55.5095 61.4843 55.7013 60.7673C55.9033 60.0403 56.0042 59.2678 56.0042 58.4499V58.1016C56.0042 57.2938 55.9033 56.5314 55.7013 55.8145C55.5095 55.0874 55.2166 54.4462 54.8228 53.8909C54.4391 53.3254 53.9544 52.8811 53.3688 52.558C52.7932 52.2348 52.1167 52.0733 51.3391 52.0733C50.5717 52.0733 49.8952 52.2348 49.3095 52.558C48.7339 52.8811 48.2493 53.3254 47.8555 53.8909C47.4717 54.4462 47.184 55.0874 46.9921 55.8145C46.8003 56.5314 46.7043 57.2938 46.7043 58.1016ZM61.5933 58.4499V58.1016C61.5933 56.9201 61.7649 55.8246 62.1083 54.8148C62.4516 53.7949 62.9464 52.9114 63.5926 52.1642C64.2389 51.4068 65.0214 50.8212 65.9403 50.4072C66.8592 49.9831 67.8891 49.771 69.0302 49.771C70.1813 49.771 71.2163 49.9831 72.1352 50.4072C73.0642 50.8212 73.8518 51.4068 74.498 52.1642C75.1544 52.9114 75.6542 53.7949 75.9975 54.8148C76.3409 55.8246 76.5125 56.9201 76.5125 58.1016V58.4499C76.5125 59.6314 76.3409 60.7269 75.9975 61.7367C75.6542 62.7465 75.1544 63.63 74.498 64.3873C73.8518 65.1346 73.0692 65.7202 72.1503 66.1443C71.2416 66.5583 70.2116 66.7653 69.0605 66.7653C67.9093 66.7653 66.8743 66.5583 65.9555 66.1443C65.0366 65.7202 64.249 65.1346 63.5926 64.3873C62.9464 63.63 62.4516 62.7465 62.1083 61.7367C61.7649 60.7269 61.5933 59.6314 61.5933 58.4499ZM64.3954 58.1016V58.4499C64.3954 59.2678 64.4913 60.0403 64.6832 60.7673C64.875 61.4843 65.1628 62.1204 65.5465 62.6758C65.9403 63.2312 66.43 63.6704 67.0157 63.9935C67.6014 64.3066 68.283 64.4631 69.0605 64.4631C69.8279 64.4631 70.4994 64.3066 71.075 63.9935C71.6606 63.6704 72.1453 63.2312 72.529 62.6758C72.9127 62.1204 73.2005 61.4843 73.3924 60.7673C73.5943 60.0403 73.6953 59.2678 73.6953 58.4499V58.1016C73.6953 57.2938 73.5943 56.5314 73.3924 55.8145C73.2005 55.0874 72.9077 54.4462 72.5139 53.8909C72.1302 53.3254 71.6455 52.8811 71.0598 52.558C70.4842 52.2348 69.8077 52.0733 69.0302 52.0733C68.2628 52.0733 67.5862 52.2348 67.0006 52.558C66.425 52.8811 65.9403 53.3254 65.5465 53.8909C65.1628 54.4462 64.875 55.0874 64.6832 55.8145C64.4913 56.5314 64.3954 57.2938 64.3954 58.1016ZM82.8286 52.6488V66.4624H80.0265V50.074H82.7529L82.8286 52.6488ZM87.9481 49.9831L87.9329 52.5883C87.7007 52.5378 87.4785 52.5075 87.2665 52.4974C87.0645 52.4772 86.8323 52.4671 86.5698 52.4671C85.9235 52.4671 85.353 52.5681 84.8582 52.77C84.3634 52.972 83.9444 53.2547 83.6011 53.6182C83.2577 53.9817 82.9851 54.4159 82.7832 54.9208C82.5913 55.4156 82.4651 55.9609 82.4045 56.5566L81.6169 57.011C81.6169 56.0215 81.7128 55.0925 81.9047 54.2241C82.1066 53.3557 82.4146 52.5883 82.8286 51.9218C83.2426 51.2453 83.7677 50.7202 84.4038 50.3466C85.0501 49.9629 85.8175 49.771 86.7061 49.771C86.908 49.771 87.1403 49.7963 87.4028 49.8468C87.6654 49.8871 87.8471 49.9326 87.9481 49.9831Z" fill="#999999"/>
<path d="M25.9972 5.68242L27.2529 0.595459L25.9972 20.9433L27.2529 41.2911L25.9972 36.2042L27.2529 0.595459V41.2911" fill="#999999"/>
<path d="M11.9972 5.6825H0.571075L11.9972 20.9434L0.571075 36.2043H11.9972L0.571075 5.6825V36.2043" fill="#999999"/>
</svg>
