<svg width="129" height="67" viewBox="0 0 129 67" fill="none" xmlns="http://www.w3.org/2000/svg">
<path d="M65.3484 30.4615H60.7439L60.7741 28.0836H65.3484C66.9236 28.0836 68.2363 27.7554 69.2864 27.099C70.3366 26.4326 71.1242 25.5036 71.6493 24.3121C72.1845 23.1105 72.4521 21.7069 72.4521 20.1014V18.7533C72.4521 17.4911 72.3006 16.3703 71.9977 15.3908C71.6947 14.4013 71.2504 13.5682 70.6648 12.8917C70.0791 12.205 69.3622 11.685 68.514 11.3316C67.6759 10.9782 66.7115 10.8015 65.621 10.8015H60.653V8.40833H65.621C67.065 8.40833 68.3827 8.65067 69.5742 9.13536C70.7657 9.60995 71.7907 10.3016 72.649 11.2104C73.5174 12.1091 74.1838 13.1997 74.6483 14.4821C75.1128 15.7544 75.345 17.1882 75.345 18.7836V20.1014C75.345 21.6968 75.1128 23.1357 74.6483 24.4181C74.1838 25.6904 73.5123 26.7759 72.6338 27.6746C71.7654 28.5733 70.7153 29.265 69.4833 29.7497C68.2615 30.2243 66.8832 30.4615 65.3484 30.4615ZM62.3039 8.40833V30.4615H59.3807V8.40833H62.3039ZM82.1155 16.648V30.4615H79.3134V14.0731H82.0398L82.1155 16.648ZM87.235 13.9822L87.2198 16.5874C86.9876 16.5369 86.7654 16.5066 86.5534 16.4965C86.3514 16.4763 86.1192 16.4662 85.8567 16.4662C85.2104 16.4662 84.6399 16.5672 84.1451 16.7692C83.6503 16.9711 83.2313 17.2538 82.888 17.6174C82.5446 17.9809 82.272 18.4151 82.07 18.92C81.8782 19.4147 81.752 19.96 81.6914 20.5558L80.9038 21.0102C80.9038 20.0206 80.9997 19.0916 81.1915 18.2232C81.3935 17.3548 81.7015 16.5874 82.1155 15.921C82.5295 15.2444 83.0546 14.7193 83.6907 14.3457C84.337 13.962 85.1044 13.7702 85.993 13.7702C86.1949 13.7702 86.4272 13.7954 86.6897 13.8459C86.9522 13.8863 87.134 13.9317 87.235 13.9822ZM88.7799 22.4491V22.1007C88.7799 20.9193 88.9516 19.8237 89.2949 18.8139C89.6382 17.7941 90.133 16.9105 90.7792 16.1633C91.4255 15.406 92.2081 14.8203 93.1269 14.4063C94.0458 13.9822 95.0758 13.7702 96.2168 13.7702C97.3679 13.7702 98.403 13.9822 99.3218 14.4063C100.251 14.8203 101.038 15.406 101.685 16.1633C102.341 16.9105 102.841 17.7941 103.184 18.8139C103.528 19.8237 103.699 20.9193 103.699 22.1007V22.4491C103.699 23.6305 103.528 24.7261 103.184 25.7359C102.841 26.7456 102.341 27.6292 101.685 28.3865C101.038 29.1337 100.256 29.7194 99.337 30.1435C98.4282 30.5575 97.3982 30.7645 96.2471 30.7645C95.096 30.7645 94.061 30.5575 93.1421 30.1435C92.2232 29.7194 91.4356 29.1337 90.7792 28.3865C90.133 27.6292 89.6382 26.7456 89.2949 25.7359C88.9516 24.7261 88.7799 23.6305 88.7799 22.4491ZM91.582 22.1007V22.4491C91.582 23.267 91.6779 24.0395 91.8698 24.7665C92.0616 25.4834 92.3494 26.1196 92.7331 26.6749C93.1269 27.2303 93.6167 27.6696 94.2023 27.9927C94.788 28.3057 95.4696 28.4622 96.2471 28.4622C97.0145 28.4622 97.686 28.3057 98.2616 27.9927C98.8473 27.6696 99.3319 27.2303 99.7156 26.6749C100.099 26.1196 100.387 25.4834 100.579 24.7665C100.781 24.0395 100.882 23.267 100.882 22.4491V22.1007C100.882 21.2929 100.781 20.5305 100.579 19.8136C100.387 19.0866 100.094 18.4454 99.7005 17.89C99.3168 17.3245 98.8321 16.8802 98.2464 16.5571C97.6709 16.234 96.9943 16.0724 96.2168 16.0724C95.4494 16.0724 94.7729 16.234 94.1872 16.5571C93.6116 16.8802 93.1269 17.3245 92.7331 17.89C92.3494 18.4454 92.0616 19.0866 91.8698 19.8136C91.6779 20.5305 91.582 21.2929 91.582 22.1007ZM110.015 17.2236V36.7625H107.198V14.0731H109.773L110.015 17.2236ZM121.057 22.131V22.4491C121.057 23.6406 120.916 24.7463 120.633 25.7662C120.35 26.7759 119.936 27.6544 119.391 28.4016C118.856 29.1489 118.194 29.7295 117.407 30.1435C116.619 30.5575 115.715 30.7645 114.695 30.7645C113.655 30.7645 112.737 30.5928 111.939 30.2495C111.141 29.9062 110.465 29.4063 109.909 28.75C109.354 28.0937 108.91 27.306 108.576 26.3872C108.253 25.4683 108.031 24.4333 107.91 23.2821V21.5857C108.031 20.374 108.258 19.2885 108.591 18.3292C108.925 17.37 109.364 16.5521 109.909 15.8755C110.465 15.1889 111.136 14.6689 111.924 14.3154C112.711 13.9519 113.62 13.7702 114.65 13.7702C115.68 13.7702 116.594 13.9721 117.392 14.376C118.189 14.7698 118.861 15.3353 119.406 16.0724C119.951 16.8096 120.36 17.6931 120.633 18.7231C120.916 19.7429 121.057 20.8789 121.057 22.131ZM118.24 22.4491V22.131C118.24 21.3131 118.154 20.5457 117.982 19.8287C117.811 19.1017 117.543 18.4656 117.179 17.9203C116.826 17.3649 116.372 16.9307 115.816 16.6177C115.261 16.2946 114.6 16.133 113.832 16.133C113.125 16.133 112.509 16.2542 111.984 16.4965C111.469 16.7389 111.03 17.067 110.667 17.481C110.303 17.885 110.005 18.3494 109.773 18.8745C109.551 19.3895 109.384 19.9247 109.273 20.48V24.403C109.475 25.1098 109.758 25.7762 110.121 26.4023C110.485 27.0183 110.969 27.5181 111.575 27.9018C112.181 28.2754 112.944 28.4622 113.862 28.4622C114.62 28.4622 115.271 28.3057 115.816 27.9927C116.372 27.6696 116.826 27.2303 117.179 26.6749C117.543 26.1196 117.811 25.4834 117.982 24.7665C118.154 24.0395 118.24 23.267 118.24 22.4491ZM62.001 43.1966V66.4615H59.1838V43.1966H62.001ZM73.3003 66.7645C72.1592 66.7645 71.1242 66.5726 70.1952 66.1889C69.2763 65.7951 68.4837 65.2448 67.8172 64.5379C67.1609 63.8311 66.656 62.993 66.3026 62.0236C65.9492 61.0543 65.7725 59.994 65.7725 58.8429V58.2067C65.7725 56.8738 65.9694 55.6874 66.3632 54.6473C66.757 53.5972 67.2922 52.7086 67.9687 51.9815C68.6452 51.2545 69.4127 50.7042 70.271 50.3306C71.1293 49.957 72.0179 49.7702 72.9367 49.7702C74.1081 49.7702 75.1178 49.9721 75.966 50.376C76.8243 50.7799 77.5261 51.3454 78.0714 52.0724C78.6167 52.7894 79.0206 53.6376 79.2831 54.617C79.5456 55.5864 79.6769 56.6467 79.6769 57.7978V59.0549H67.4386V56.7678H76.8748V56.5558C76.8344 55.8287 76.683 55.1219 76.4204 54.4353C76.168 53.7486 75.7641 53.1832 75.2087 52.7389C74.6533 52.2946 73.896 52.0724 72.9367 52.0724C72.3006 52.0724 71.7149 52.2087 71.1798 52.4814C70.6446 52.7439 70.1851 53.1377 69.8014 53.6628C69.4177 54.1879 69.1198 54.8291 68.9078 55.5864C68.6957 56.3437 68.5897 57.2172 68.5897 58.2067V58.8429C68.5897 59.6204 68.6957 60.3525 68.9078 61.0391C69.1299 61.7157 69.448 62.3114 69.862 62.8264C70.2861 63.3414 70.796 63.7453 71.3918 64.0381C71.9977 64.3309 72.6843 64.4774 73.4517 64.4774C74.4413 64.4774 75.2794 64.2754 75.966 63.8715C76.6527 63.4676 77.2535 62.9274 77.7685 62.2508L79.4649 63.5989C79.1114 64.134 78.6621 64.644 78.1168 65.1287C77.5715 65.6133 76.9001 66.0072 76.1023 66.3101C75.3147 66.613 74.3807 66.7645 73.3003 66.7645ZM89.8099 50.0731V52.2239H80.9492V50.0731H89.8099ZM83.9482 46.0896H86.7503V62.4023C86.7503 62.9577 86.8361 63.3767 87.0078 63.6595C87.1794 63.9422 87.4016 64.129 87.6742 64.2199C87.9469 64.3108 88.2397 64.3562 88.5527 64.3562C88.785 64.3562 89.0273 64.336 89.2798 64.2956C89.5423 64.2451 89.7392 64.2047 89.8705 64.1744L89.8856 66.4615C89.6635 66.5322 89.3706 66.5979 89.0071 66.6585C88.6537 66.7291 88.2245 66.7645 87.7197 66.7645C87.033 66.7645 86.4019 66.6282 85.8264 66.3555C85.2508 66.0829 84.7914 65.6285 84.448 64.9923C84.1148 64.3461 83.9482 63.4777 83.9482 62.3872V46.0896Z" fill="#999999"/>
<path d="M3.10454 12.8337C10.679 -7.21399 24.1737 -1.02316 19.9345 19.752C15.6953 40.5271 28.146 20.6829 27.5457 32.7186C26.9453 44.7544 3.38471 43.8286 10.9559 31.7826C18.5237 19.7367 19.3942 15.601 11.6096 23.3535C3.82497 31.1061 -2.69556 28.1811 3.10454 12.8337Z" fill="#999999"/>
<path d="M3.10454 12.8337C10.679 -7.21399 24.1737 -1.02316 19.9345 19.752C15.6953 40.5271 28.146 20.6829 27.5457 32.7186C26.9453 44.7544 3.38471 43.8286 10.9559 31.7826C18.5237 19.7367 19.3942 15.601 11.6096 23.3535C3.82497 31.1061 -2.69556 28.1811 3.10454 12.8337Z" fill="#999999"/>
</svg>
